<svg id="Objects" xmlns="http://www.w3.org/2000/svg" xmlns:xlink="http://www.w3.org/1999/xlink" viewBox="0 0 179.37 164.04">
  <defs>
    <radialGradient id="radial-gradient" cx="115.17" cy="105.44" r="62" gradientUnits="userSpaceOnUse">
      <stop offset="0" stop-color="#fff" stop-opacity="0"/>
      <stop offset="0.49" stop-color="#fbfbfb" stop-opacity="0.01"/>
      <stop offset="0.67" stop-color="#eee" stop-opacity="0.07"/>
      <stop offset="0.8" stop-color="#d6d6d6" stop-opacity="0.16"/>
      <stop offset="0.9" stop-color="#b4b5b5" stop-opacity="0.29"/>
      <stop offset="0.98" stop-color="#898a8a" stop-opacity="0.46"/>
      <stop offset="1" stop-color="#7f8080" stop-opacity="0.5"/>
    </radialGradient>
  </defs>
  <g>
    <g>
      <path d="M118.54,167.44a3.38,3.38,0,1,1-3.37-3.38A3.37,3.37,0,0,1,118.54,167.44Z" transform="translate(-25.32 -23.49)" fill="#4285c5" stroke="#7f8080" stroke-miterlimit="10" stroke-width="0.5"/>
      <path d="M162.53,149.13a3.38,3.38,0,1,1-3.38-3.38A3.38,3.38,0,0,1,162.53,149.13Z" transform="translate(-25.32 -23.49)" fill="#4285c5" stroke="#7f8080" stroke-miterlimit="10" stroke-width="0.5"/>
      <path d="M180.54,105.44a3.38,3.38,0,1,1-3.37-3.38A3.37,3.37,0,0,1,180.54,105.44Z" transform="translate(-25.32 -23.49)" fill="#4285c5" stroke="#7f8080" stroke-miterlimit="10" stroke-width="0.5"/>
      <path d="M162.38,61.59A3.38,3.38,0,1,1,159,58.21,3.38,3.38,0,0,1,162.38,61.59Z" transform="translate(-25.32 -23.49)" fill="#4285c5" stroke="#7f8080" stroke-miterlimit="10" stroke-width="0.5"/>
      <path d="M118.29,43.44a3.38,3.38,0,1,1-3.37-3.38A3.37,3.37,0,0,1,118.29,43.44Z" transform="translate(-25.32 -23.49)" fill="#4285c5" stroke="#7f8080" stroke-miterlimit="10" stroke-width="0.5"/>
      <path d="M74.48,61.83a3.38,3.38,0,1,1-3.38-3.37A3.38,3.38,0,0,1,74.48,61.83Z" transform="translate(-25.32 -23.49)" fill="#4285c5" stroke="#7f8080" stroke-miterlimit="10" stroke-width="0.5"/>
      <path d="M56.54,105.44a3.38,3.38,0,1,1-3.37-3.38A3.37,3.37,0,0,1,56.54,105.44Z" transform="translate(-25.32 -23.49)" fill="#4285c5" stroke="#7f8080" stroke-miterlimit="10" stroke-width="0.5"/>
      <path d="M74.26,149.3a3.38,3.38,0,1,1-3.38-3.38A3.37,3.37,0,0,1,74.26,149.3Z" transform="translate(-25.32 -23.49)" fill="#4285c5" stroke="#7f8080" stroke-miterlimit="10" stroke-width="0.5"/>
    </g>
    <path d="M70,147.89" transform="translate(-25.32 -23.49)" fill="none" stroke="#fff" stroke-miterlimit="10" stroke-width="0.25"/>
    <path d="M69.33,147.2a62.08,62.08,0,1,1,3.35,3.4" transform="translate(-25.32 -23.49)" stroke="#4285c5" stroke-miterlimit="10" opacity="0.5" fill="url(#radial-gradient)"/>
    <g>
      <line x1="89.59" y1="19.95" x2="89.6" y2="20.95" fill="none" stroke="#7f8080" stroke-miterlimit="10" stroke-width="0.2"/>
      <line x1="89.6" y1="22.95" x2="89.84" y2="141.95" fill="none" stroke="#7f8080" stroke-miterlimit="10" stroke-width="0.2" stroke-dasharray="2 2"/>
      <line x1="89.84" y1="142.95" x2="89.84" y2="143.95" fill="none" stroke="#7f8080" stroke-miterlimit="10" stroke-width="0.2"/>
    </g>
    <g>
      <line x1="45.84" y1="125.64" x2="46.55" y2="124.93" fill="none" stroke="#7f8080" stroke-miterlimit="10" stroke-width="0.2"/>
      <line x1="47.97" y1="123.52" x2="132.26" y2="39.51" fill="none" stroke="#7f8080" stroke-miterlimit="10" stroke-width="0.2" stroke-dasharray="2 2"/>
      <line x1="132.97" y1="38.81" x2="133.68" y2="38.1" fill="none" stroke="#7f8080" stroke-miterlimit="10" stroke-width="0.2"/>
    </g>
    <g>
      <line x1="27.84" y1="81.95" x2="28.84" y2="81.95" fill="none" stroke="#7f8080" stroke-miterlimit="10" stroke-width="0.2"/>
      <line x1="30.83" y1="81.95" x2="149.18" y2="81.95" fill="none" stroke="#7f8080" stroke-miterlimit="10" stroke-width="0.2" stroke-dasharray="1.99 1.99"/>
      <line x1="150.18" y1="81.95" x2="151.18" y2="81.95" fill="none" stroke="#7f8080" stroke-miterlimit="10" stroke-width="0.2"/>
    </g>
    <g>
      <line x1="133.68" y1="125.48" x2="132.97" y2="124.78" fill="none" stroke="#7f8080" stroke-miterlimit="10" stroke-width="0.2"/>
      <line x1="131.55" y1="123.38" x2="47.19" y2="39.75" fill="none" stroke="#7f8080" stroke-miterlimit="10" stroke-width="0.2" stroke-dasharray="2 2"/>
      <line x1="46.49" y1="39.05" x2="45.78" y2="38.34" fill="none" stroke="#7f8080" stroke-miterlimit="10" stroke-width="0.2"/>
    </g>
    <polygon points="45.84 125.64 89.84 143.95 133.83 125.64 151.84 81.95 133.68 38.1 89.84 19.95 45.78 38.34 27.84 81.95 45.84 125.64" fill="none" stroke="#4285c5" stroke-miterlimit="10"/>
    <polygon points="114.42 106.39 134.98 81.78 130.3 41.72 89.84 24.76 51.77 44.28 42.4 82.24 62.82 108.72 89.84 101.57 114.42 106.39" fill="none" stroke="#4285c5" stroke-miterlimit="10"/>
    <g>
      <rect x="0.1" y="74.62" width="22.07" height="14.4" rx="7.2" fill="none" stroke="#7f8080" stroke-miterlimit="10" stroke-width="0.2" stroke-dasharray="2 2"/>
      <text transform="translate(8.53 84.94)" font-size="8" fill="#7f8080" font-family="ArialMT, Arial" letter-spacing="-0.02em">T</text>
    </g>
    <g>
      <rect x="157.2" y="74.62" width="22.07" height="14.4" rx="7.2" fill="none" stroke="#7f8080" stroke-miterlimit="10" stroke-width="0.2" stroke-dasharray="2 2"/>
      <text transform="translate(165.9 84.94)" font-size="8" fill="#7f8080" font-family="ArialMT, Arial">R</text>
    </g>
    <g>
      <rect x="19.42" y="23.08" width="22.07" height="14.4" rx="7.2" fill="none" stroke="#7f8080" stroke-miterlimit="10" stroke-width="0.2" stroke-dasharray="2 2"/>
      <text transform="translate(28.89 32.83)" font-size="8" fill="#7f8080" font-family="ArialMT, Arial" letter-spacing="-0.04em">L</text>
    </g>
    <g>
      <rect x="137.07" y="23.08" width="22.07" height="14.4" rx="7.2" fill="none" stroke="#7f8080" stroke-miterlimit="10" stroke-width="0.2" stroke-dasharray="2 2"/>
      <text transform="translate(145.96 32.83)" font-size="8" fill="#7f8080" font-family="ArialMT, Arial">B</text>
    </g>
    <g>
      <rect x="19.42" y="126.17" width="22.07" height="14.4" rx="7.2" fill="none" stroke="#7f8080" stroke-miterlimit="10" stroke-width="0.2" stroke-dasharray="2 2"/>
      <text transform="translate(26.84 136.19)" font-size="8" fill="#7f8080" font-family="ArialMT, Arial">C</text>
    </g>
    <g>
      <rect x="137.07" y="126.17" width="22.07" height="14.4" rx="7.2" fill="none" stroke="#7f8080" stroke-miterlimit="10" stroke-width="0.2" stroke-dasharray="2 2"/>
      <text transform="translate(145.56 136.19)" font-size="8" fill="#7f8080" font-family="ArialMT, Arial">V</text>
    </g>
    <g>
      <rect x="78.79" y="149.54" width="22.07" height="14.4" rx="7.2" fill="none" stroke="#7f8080" stroke-miterlimit="10" stroke-width="0.2" stroke-dasharray="2 2"/>
      <text transform="translate(87.76 159.69)" font-size="8" fill="#7f8080" font-family="ArialMT, Arial">B</text>
    </g>
    <g>
      <rect x="78.15" y="0.1" width="22.07" height="14.4" rx="7.2" fill="none" stroke="#7f8080" stroke-miterlimit="10" stroke-width="0.2" stroke-dasharray="2 2"/>
      <text transform="translate(86.89 9.95)" font-size="8" fill="#7f8080" font-family="ArialMT, Arial">S</text>
    </g>
  </g>
</svg>
